<?xml version="1.0" encoding="utf-8"?>
<!-- Generator: Adobe Illustrator 25.4.1, SVG Export Plug-In . SVG Version: 6.00 Build 0)  -->
<svg version="1.1" id="Capa_1" xmlns="http://www.w3.org/2000/svg" xmlns:xlink="http://www.w3.org/1999/xlink" x="0px" y="0px"
	 viewBox="0 0 1080 1080" style="enable-background:new 0 0 1080 1080;" xml:space="preserve">
<style type="text/css">
	.st0{fill:#009FDF;}
</style>
<g>
	<path class="st0" d="M29.8,539.7c-0.1-11.9,0.4-24,1.3-36.2C38.7,407.6,71.3,321,128.9,244C177,179.9,237.2,130.1,308.8,94.1
		c36.3-18.3,74.3-31.8,113.9-41c15.1-3.5,30.3-6.3,45.6-8.4c12.3-1.7,24.6-2.9,37-3.8c17.1-1.2,34.2-1.4,51.4-0.9
		c10.9,0.3,21.8,1.1,32.8,2.1c14.3,1.4,28.5,3.3,42.6,5.8c23.4,4.2,46.4,10,68.9,17.5c71.5,23.7,134.9,61.1,190,112.6
		c43,40.1,77.9,86.4,104.6,138.7c18.9,36.9,32.8,75.7,41.9,116.1c3.2,14.5,5.8,29.1,7.7,43.9c3.1,24.1,4.5,48.3,4,72.6
		c-0.2,11.5-0.8,22.9-1.8,34.3c-3.5,38.6-11.3,76.3-23.7,113c-20.4,60.5-51.3,115-92.7,163.6c-60.6,70.9-135.1,121.6-223.2,152.2
		c-24.7,8.6-50,15.1-75.7,19.7c-12.2,2.2-24.4,4-36.8,5.3c-23.1,2.4-46.3,3.4-69.6,2.8c-9.6-0.3-19.2-0.7-28.8-1.5
		c-13-1.1-25.9-2.6-38.7-4.6c-19.6-3.1-38.9-7.2-58-12.6c-76.5-21.5-144.5-58.7-203.8-111.6c-45.8-40.9-83-88.7-111.4-143.2
		C65.7,729.7,51.4,690.6,42,649.6c-3.6-15.7-6.4-31.5-8.4-47.5c-1.2-9.9-2.2-19.9-2.8-29.9C30.2,561.5,29.7,550.7,29.8,539.7z
		 M539.8,118.3c-2.1,0-4.1-0.1-6.2,0c-8.6,0.3-17.1,0.5-25.7,1.1c-10.5,0.7-21,1.9-31.4,3.4c-12.7,1.8-25.2,4.2-37.7,7.1
		c-41.5,9.8-80.6,25.4-117.5,46.8c-56.4,32.9-103.1,76.2-139.8,130.1c-30,44.1-50.8,92.2-62.2,144.4c-3.1,14.2-5.5,28.6-7.1,43
		c-1.1,9.9-1.7,19.7-2.2,29.6c-0.8,16.7-0.3,33.4,1,50.1c1.1,13.5,2.9,26.9,5.3,40.2c4.3,23.8,10.6,47.1,19.1,69.8
		c22.6,60.6,57.4,113.2,104,158c43.7,42,94.2,73.3,151.1,94.1c33.8,12.3,68.6,20.3,104.4,23.9c10.7,1.1,21.4,1.8,32.1,2.1
		c19,0.6,38-0.2,56.9-2.1c10.6-1.1,21.1-2.5,31.6-4.4c20.1-3.5,39.8-8.4,59.1-14.7c66.2-21.8,124-57.3,173.1-106.8
		c35.7-36,64.1-77.1,85-123.2c16.9-37.3,28-76.2,33.2-116.9c1.9-14.5,3-29.2,3.4-43.8c0.4-15.6-0.2-31.2-1.5-46.7
		c-1-11.2-2.5-22.4-4.3-33.5c-3.2-18.8-7.6-37.2-13.5-55.3c-21.9-68.2-59-127-110.6-176.6c-32.5-31.2-69.1-56.6-109.6-76.3
		C680.6,138,628.8,124,574.4,119.7C562.9,118.7,551.3,118.4,539.8,118.3z"/>
	<path class="st0" d="M768.7,269.1c0,182.5,0,364.8,0,547.3c-0.7,0.1-1.2,0.3-1.8,0.3c-0.8,0-1.7,0-2.5,0c-41.4,0-82.8,0-124.2,0
		c-1.2,0-2.5,0-3.8,0c-0.6-1-1.2-2-1.8-3c-34.4-60.9-68.8-121.9-103.2-182.8c-14.5-25.6-29-51.2-42.9-77.1
		c-19-35.6-37.3-71.5-53.9-108.4c-4.6-10.2-8.9-20.4-13.4-30.6c-0.4-0.8-0.7-1.7-1-2.4c-1.6-0.4-1.6-0.4-3.2,0c0,1.1,0,2.2,0,3.3
		c0.5,10.6,1.1,21.2,1.6,31.9c0.6,14.5,1.2,29.1,1.7,43.6c0.4,11.5,0.7,22.9,0.9,34.4c0.4,20.7,0.8,41.5,1.1,62.2
		c0.2,12.1,0.2,24.2,0.2,36.2c0,62.8,0,125.5,0,188.3c0,1.3,0.2,2.7-0.3,4.2c-0.9,0.1-1.8,0.2-2.7,0.2c-7.2,0-14.5,0-21.7,0
		c-29,0-58,0-87,0c-1.2,0-2.5,0-3.8,0c-0.2-0.7-0.4-1.3-0.4-1.9c-0.1-0.8,0-1.7,0-2.5c0-179.7,0-359.5,0-539.2c0-1.3-0.1-2.7,0.2-4
		c0.5-0.1,0.8-0.3,1.2-0.3c3-0.2,143.9,0,146.1,0.2c0.5,0.8,1.1,1.8,1.6,2.7c16.6,28.8,33.2,57.6,49.8,86.3
		c21.3,36.9,42.6,73.8,63.9,110.7c20.5,35.6,39.1,72.2,56.5,109.4c11.7,24.9,22.9,50.1,33.5,75.5c0.4,0.9,0.7,1.7,1.1,2.6
		c0.2,0.5,0.5,1,1.1,0.8c0.6-0.1,0.7-0.7,0.6-1.2c-0.4-4.2-0.8-8.4-1.2-12.6c-0.5-5.8-1.1-11.5-1.5-17.3c-0.6-7.2-1.2-14.4-1.7-21.6
		c-0.5-7-1-14-1.4-21c-0.5-9.8-1-19.6-1.4-29.4c-0.5-12-0.9-23.9-1.3-35.9c-0.8-25.3-1.2-50.6-1.2-75.9c0-56.4,0-112.7,0-169.1
		c0-1.3,0-2.7,0-4.1c0.8-0.1,1.4-0.3,2-0.3c0.8,0,1.7,0,2.5,0c35.7,0,71.4,0,107.2,0C765.7,268.7,767.1,268.6,768.7,269.1z"/>
</g>
</svg>
